<mxfile host="drawio-plugin" modified="2022-03-20T08:19:43.088Z" agent="5.0 (Windows NT 6.2; Win64; x64) AppleWebKit/537.36 (KHTML, like Gecko) Chrome/89.0.4389.114 Safari/537.36" etag="Uu-6LPLtCrMmxV4C5SB9" version="15.5.4" type="embed" pages="2"><diagram id="23iRSUPoRavnBvh4doch" name="Page-1"><mxGraphModel dx="934" dy="353" grid="1" gridSize="10" guides="1" tooltips="1" connect="1" arrows="1" fold="1" page="1" pageScale="1" pageWidth="827" pageHeight="1169" math="0" shadow="0"><root><mxCell id="0"/><mxCell id="1" parent="0"/><mxCell id="2" value="" style="whiteSpace=wrap;html=1;" parent="1" vertex="1"><mxGeometry x="70" y="60" width="450" height="450" as="geometry"/></mxCell><mxCell id="3" value="Form" style="text;html=1;strokeColor=none;fillColor=none;align=left;verticalAlign=middle;whiteSpace=wrap;rounded=0;" parent="1" vertex="1"><mxGeometry x="80" y="60" width="60" height="30" as="geometry"/></mxCell><mxCell id="4" value="" style="whiteSpace=wrap;html=1;" parent="1" vertex="1"><mxGeometry x="100" y="120" width="400" height="380" as="geometry"/></mxCell><mxCell id="5" value="Fieldset" style="text;html=1;strokeColor=none;fillColor=none;align=left;verticalAlign=middle;whiteSpace=wrap;rounded=0;" parent="1" vertex="1"><mxGeometry x="110" y="120" width="60" height="30" as="geometry"/></mxCell><mxCell id="6" value="" style="whiteSpace=wrap;html=1;" parent="1" vertex="1"><mxGeometry x="130" y="170" width="340" height="320" as="geometry"/></mxCell><mxCell id="7" value="Field" style="text;html=1;strokeColor=none;fillColor=none;align=left;verticalAlign=middle;whiteSpace=wrap;rounded=0;" parent="1" vertex="1"><mxGeometry x="140" y="170" width="60" height="30" as="geometry"/></mxCell><mxCell id="8" value="" style="whiteSpace=wrap;html=1;" parent="1" vertex="1"><mxGeometry x="150" y="210" width="210" height="40" as="geometry"/></mxCell><mxCell id="9" value="Label" style="text;html=1;strokeColor=none;fillColor=none;align=left;verticalAlign=middle;whiteSpace=wrap;rounded=0;" parent="1" vertex="1"><mxGeometry x="160" y="210" width="60" height="30" as="geometry"/></mxCell><mxCell id="17" value="" style="whiteSpace=wrap;html=1;" parent="1" vertex="1"><mxGeometry x="150" y="265" width="210" height="40" as="geometry"/></mxCell><mxCell id="18" value="Description" style="text;html=1;strokeColor=none;fillColor=none;align=left;verticalAlign=middle;whiteSpace=wrap;rounded=0;" parent="1" vertex="1"><mxGeometry x="160" y="265" width="60" height="30" as="geometry"/></mxCell><mxCell id="19" value="" style="whiteSpace=wrap;html=1;" parent="1" vertex="1"><mxGeometry x="150" y="320" width="210" height="110" as="geometry"/></mxCell><mxCell id="20" value="Inputs" style="text;html=1;strokeColor=none;fillColor=none;align=left;verticalAlign=middle;whiteSpace=wrap;rounded=0;" parent="1" vertex="1"><mxGeometry x="160" y="320" width="60" height="30" as="geometry"/></mxCell><mxCell id="21" value="" style="whiteSpace=wrap;html=1;" parent="1" vertex="1"><mxGeometry x="150" y="440" width="210" height="40" as="geometry"/></mxCell><mxCell id="22" value="Validate" style="text;html=1;strokeColor=none;fillColor=none;align=left;verticalAlign=middle;whiteSpace=wrap;rounded=0;" parent="1" vertex="1"><mxGeometry x="160" y="440" width="60" height="30" as="geometry"/></mxCell><mxCell id="23" value="" style="whiteSpace=wrap;html=1;" parent="1" vertex="1"><mxGeometry x="160" y="360" width="90" height="50" as="geometry"/></mxCell><mxCell id="24" value="Input" style="text;html=1;strokeColor=none;fillColor=none;align=left;verticalAlign=middle;whiteSpace=wrap;rounded=0;" parent="1" vertex="1"><mxGeometry x="170" y="360" width="60" height="30" as="geometry"/></mxCell><mxCell id="25" value="" style="whiteSpace=wrap;html=1;" parent="1" vertex="1"><mxGeometry x="255" y="360" width="90" height="50" as="geometry"/></mxCell><mxCell id="26" value="Input" style="text;html=1;strokeColor=none;fillColor=none;align=left;verticalAlign=middle;whiteSpace=wrap;rounded=0;" parent="1" vertex="1"><mxGeometry x="265" y="360" width="60" height="30" as="geometry"/></mxCell></root></mxGraphModel></diagram><diagram id="RGNXz4P0PXvrBOLzP27U" name="Page-2"><mxGraphModel dx="934" dy="353" grid="1" gridSize="10" guides="1" tooltips="1" connect="1" arrows="1" fold="1" page="1" pageScale="1" pageWidth="850" pageHeight="1100" math="0" shadow="0"><root><mxCell id="lMWz7x5XtvbWU3bWG78n-0"/><mxCell id="lMWz7x5XtvbWU3bWG78n-1" parent="lMWz7x5XtvbWU3bWG78n-0"/><mxCell id="lMWz7x5XtvbWU3bWG78n-4" style="edgeStyle=orthogonalEdgeStyle;rounded=0;orthogonalLoop=1;jettySize=auto;html=1;exitX=0.5;exitY=1;exitDx=0;exitDy=0;" parent="lMWz7x5XtvbWU3bWG78n-1" source="lMWz7x5XtvbWU3bWG78n-2" target="lMWz7x5XtvbWU3bWG78n-3" edge="1"><mxGeometry relative="1" as="geometry"/></mxCell><mxCell id="lMWz7x5XtvbWU3bWG78n-2" value="Core" style="rounded=0;whiteSpace=wrap;html=1;" parent="lMWz7x5XtvbWU3bWG78n-1" vertex="1"><mxGeometry x="240" y="310" width="120" height="60" as="geometry"/></mxCell><mxCell id="lMWz7x5XtvbWU3bWG78n-6" style="edgeStyle=orthogonalEdgeStyle;rounded=0;orthogonalLoop=1;jettySize=auto;html=1;exitX=0.5;exitY=1;exitDx=0;exitDy=0;" parent="lMWz7x5XtvbWU3bWG78n-1" source="lMWz7x5XtvbWU3bWG78n-3" target="lMWz7x5XtvbWU3bWG78n-5" edge="1"><mxGeometry relative="1" as="geometry"/></mxCell><mxCell id="lMWz7x5XtvbWU3bWG78n-3" value="Field" style="rounded=0;whiteSpace=wrap;html=1;" parent="lMWz7x5XtvbWU3bWG78n-1" vertex="1"><mxGeometry x="240" y="430" width="120" height="60" as="geometry"/></mxCell><mxCell id="lMWz7x5XtvbWU3bWG78n-5" value="FieldText" style="rounded=0;whiteSpace=wrap;html=1;" parent="lMWz7x5XtvbWU3bWG78n-1" vertex="1"><mxGeometry x="240" y="550" width="120" height="60" as="geometry"/></mxCell></root></mxGraphModel></diagram></mxfile>